<svg xmlns="http://www.w3.org/2000/svg" xmlns:xlink="http://www.w3.org/1999/xlink" width="500" zoomAndPan="magnify" viewBox="0 0 375 374.999991" height="500" preserveAspectRatio="xMidYMid meet" version="1.0"><defs><clipPath id="85d976767e"><path d="M 158 150 L 240 150 L 240 270.332031 L 158 270.332031 Z M 158 150 " clip-rule="nonzero"/></clipPath><clipPath id="c90092049b"><path d="M 220 151 L 302 151 L 302 270.332031 L 220 270.332031 Z M 220 151 " clip-rule="nonzero"/></clipPath><clipPath id="858506f9af"><path d="M 73 150 L 155 150 L 155 270.332031 L 73 270.332031 Z M 73 150 " clip-rule="nonzero"/></clipPath><clipPath id="226effd732"><path d="M 135 151 L 217 151 L 217 270.332031 L 135 270.332031 Z M 135 151 " clip-rule="nonzero"/></clipPath></defs><g clip-path="url(#85d976767e)"><path fill="#fe6676" d="M 180.785156 215.953125 C 179.484375 217.902344 179.035156 216.441406 178.703125 214.523438 L 173.890625 206.847656 L 175.710938 207.238281 L 175.710938 206.71875 L 173.890625 205.808594 L 171.550781 196.835938 L 169.988281 197.226562 L 169.859375 195.015625 L 169.339844 190.332031 C 168.160156 176.996094 154.78125 189.203125 158.933594 191.632812 C 160.042969 194.191406 160.300781 196.746094 164.65625 199.304688 C 166.617188 202.554688 166.75 207.113281 171.808594 208.148438 L 172.980469 208.796875 C 172.070312 212.269531 173.667969 214.992188 177.660156 216.992188 C 178.429688 218.726562 179.042969 220.460938 177.402344 222.195312 L 178.441406 222.714844 L 177.402344 223.753906 L 177.273438 226.484375 L 178.183594 227.785156 L 177.921875 228.828125 L 178.574219 229.996094 L 178.050781 231.558594 L 178.3125 232.859375 L 182.863281 235.460938 L 181.824219 233.636719 L 185.984375 235.847656 L 183.773438 235.460938 L 185.59375 237.410156 C 183.71875 240.878906 183.167969 244.183594 185.203125 247.164062 L 184.945312 249.765625 L 184.164062 249.113281 C 181.65625 254.429688 185.140625 261.375 187.804688 268.101562 L 191.449219 268.230469 L 193.917969 270.183594 L 197.949219 270.183594 L 203.023438 266.933594 L 207.054688 265.5 L 210.042969 266.800781 L 212.253906 266.410156 L 212.253906 267.320312 L 215.765625 267.0625 L 213.296875 266.410156 L 213.945312 265.5 L 216.027344 266.019531 L 218.238281 265.371094 L 218.886719 263.289062 L 218.367188 262.378906 L 218.757812 261.46875 L 222.007812 261.46875 L 220.578125 262.121094 L 220.578125 262.898438 L 219.667969 262.898438 L 220.449219 263.550781 L 219.019531 263.550781 L 218.238281 265.5 L 219.539062 265.5 L 219.796875 267.582031 L 221.488281 267.582031 L 221.621094 265.632812 L 224.609375 263.8125 L 225 265.5 L 229.03125 262.769531 L 227.992188 261.988281 L 229.292969 260.949219 L 228.511719 259.910156 L 227.210938 259.910156 L 227.082031 261.078125 L 219.796875 254.445312 L 219.40625 253.015625 L 219.40625 250.414062 L 219.667969 248.464844 L 216.675781 245.601562 L 214.988281 242.09375 L 215.390625 240.011719 L 219.667969 239.882812 L 219.667969 239.230469 L 220.203125 239.996094 L 220.839844 240.011719 L 222.664062 240.285156 L 225 236.238281 L 225.652344 235.199219 L 229.714844 230.121094 L 230.074219 227.785156 L 227.339844 224.664062 L 227.339844 221.285156 L 226.429688 221.285156 L 225.78125 220.375 L 222.53125 221.023438 L 222.789062 222.195312 L 219.148438 225.054688 L 216.9375 227.136719 L 215.375 228.695312 L 215.117188 230.90625 L 213.425781 232.726562 L 214.597656 234.417969 L 214.597656 235.980469 L 213.554688 237.929688 L 214.597656 238.320312 L 214.726562 239.75 L 213.164062 242.742188 L 211.734375 246.902344 L 210.433594 250.15625 L 209.523438 252.625 C 209.445312 249.386719 207.621094 247.539062 205.101562 246.253906 C 199.097656 246.378906 200.128906 242.027344 199.121094 238.96875 L 196 235.71875 L 193.527344 232.988281 L 193.398438 231.558594 L 196 226.875 L 198.988281 225.707031 L 201.589844 227.265625 L 204.0625 226.875 L 207.183594 225.183594 L 208.355469 223.105469 L 210.042969 223.105469 L 211.867188 224.792969 L 213.945312 225.574219 L 215.507812 224.144531 L 216.546875 224.40625 L 216.9375 227.394531 L 218.238281 226.875 L 218.238281 224.273438 L 219.410156 223.234375 L 222.53125 221.023438 L 225.78125 220.503906 C 229.964844 217.730469 229.082031 214.953125 228.511719 212.179688 L 226.429688 205.9375 L 226.429688 203.855469 L 228.25 203.078125 L 228.640625 201.515625 L 228.25 200.605469 L 228.902344 198.785156 L 229.941406 196.964844 L 224.871094 181.617188 L 224.742188 184.867188 L 223.570312 185.128906 L 222.269531 191.113281 L 221.488281 196.054688 L 221.488281 199.953125 L 222.789062 202.425781 L 224.742188 203.335938 L 226.300781 203.988281 L 226.429688 205.9375 L 225.390625 205.417969 L 222.140625 203.988281 L 221.230469 204.765625 L 219.929688 204.507812 L 219.148438 202.554688 L 217.457031 202.554688 L 213.425781 202.816406 L 211.214844 202.816406 L 210.433594 199.695312 L 212.386719 196.445312 C 214.824219 193.496094 214.667969 190.546875 214.207031 187.601562 C 211.390625 182.613281 213.953125 177.628906 214.726562 172.644531 L 215.765625 168.222656 L 215.636719 165.230469 L 214.597656 162.238281 L 215.898438 161.589844 L 216.027344 159.769531 L 231.242188 160.417969 L 229.683594 161.460938 L 232.285156 164.839844 L 233.324219 171.34375 L 233.0625 174.335938 L 232.285156 174.464844 L 233.0625 175.765625 L 233.585938 179.277344 L 234.625 181.226562 L 235.40625 177.847656 L 235.40625 176.027344 L 239.046875 169.132812 L 236.445312 167.050781 L 236.964844 166.273438 L 237.617188 166.140625 L 236.183594 165.492188 L 236.445312 164.839844 L 237.484375 164.191406 L 236.707031 162.371094 L 235.664062 160.808594 L 233.585938 159.769531 L 231.234375 160.417969 L 216.082031 159.75 L 213.027344 153.265625 C 205.777344 148.070312 205.710938 152.792969 204.566406 156.035156 L 204.566406 159.898438 L 204.378906 166.152344 L 205.484375 176.449219 L 206.035156 188.222656 C 205.59375 192.144531 203.113281 196.066406 210.082031 199.992188 L 211.1875 203.117188 L 205.300781 201.09375 L 196.839844 206.613281 L 196.105469 207.714844 L 195.550781 205.507812 L 195.550781 199.625 L 197.023438 198.335938 C 199.402344 195.46875 201.101562 192.429688 199.597656 188.589844 L 197.941406 185.644531 L 197.941406 179.390625 C 199.621094 176.054688 197.542969 174.324219 195.917969 172.402344 L 196.65625 166.890625 C 196.746094 159.738281 190.175781 155.589844 188.195312 162.476562 C 187.28125 164.285156 186.25 166.074219 188.195312 168.359375 C 188.136719 173.019531 186.613281 177.679688 188.746094 182.339844 L 188.746094 189.878906 L 191.691406 198.523438 C 192.59375 201.039062 194.199219 202.992188 192.792969 207.351562 L 193.347656 213.605469 L 192.242188 215.996094 L 190.585938 215.078125 L 188.933594 213.605469 L 187.460938 213.238281 L 180.78125 215.964844 Z M 180.785156 215.953125 " fill-opacity="1" fill-rule="nonzero"/></g><g clip-path="url(#c90092049b)"><path fill="#fe9d27" d="M 278.445312 216.265625 C 279.746094 218.21875 280.191406 216.757812 280.527344 214.835938 L 285.335938 207.164062 L 283.515625 207.554688 L 283.515625 207.035156 L 285.335938 206.125 L 287.679688 197.148438 L 289.238281 197.539062 L 289.371094 195.328125 L 289.890625 190.648438 C 291.070312 177.3125 304.445312 189.519531 300.292969 191.949219 C 299.1875 194.507812 298.925781 197.0625 294.570312 199.621094 C 292.609375 202.871094 292.480469 207.429688 287.417969 208.464844 L 286.25 209.117188 C 287.15625 212.585938 285.5625 215.308594 281.566406 217.308594 C 280.796875 219.042969 280.1875 220.777344 281.828125 222.511719 L 280.785156 223.03125 L 281.828125 224.070312 L 281.957031 226.800781 L 281.046875 228.101562 L 281.304688 229.144531 L 280.65625 230.3125 L 281.175781 231.875 L 280.917969 233.175781 L 276.363281 235.777344 L 277.40625 233.953125 L 273.242188 236.164062 L 275.453125 235.777344 L 273.632812 237.726562 C 275.511719 241.195312 276.058594 244.5 274.023438 247.480469 L 274.285156 250.082031 L 275.0625 249.429688 C 277.570312 254.746094 274.089844 261.695312 271.421875 268.417969 L 267.78125 268.550781 L 265.308594 270.5 L 261.277344 270.5 L 256.207031 267.25 L 252.175781 265.816406 L 249.183594 267.117188 L 246.972656 266.726562 L 246.972656 267.636719 L 243.460938 267.378906 L 245.933594 266.726562 L 245.28125 265.816406 L 243.203125 266.339844 L 240.992188 265.6875 L 240.339844 263.605469 L 240.859375 262.695312 L 240.46875 261.785156 L 237.21875 261.785156 L 238.648438 262.4375 L 238.648438 263.214844 L 239.558594 263.214844 L 238.78125 263.867188 L 240.210938 263.867188 L 240.992188 265.816406 L 239.691406 265.816406 L 239.429688 267.898438 L 237.738281 267.898438 L 237.609375 265.949219 L 234.617188 264.128906 L 234.226562 265.816406 L 230.195312 263.085938 L 231.238281 262.304688 L 229.9375 261.265625 L 230.714844 260.226562 L 232.015625 260.226562 L 232.148438 261.394531 L 239.429688 254.761719 L 239.820312 253.332031 L 239.820312 250.730469 L 239.558594 248.78125 L 242.550781 245.917969 L 244.242188 242.410156 L 244.242188 240.328125 L 239.558594 240.199219 L 239.558594 239.546875 L 238.261719 239.546875 L 238.390625 240.328125 L 237.089844 240.199219 L 234.226562 236.554688 L 233.578125 235.515625 L 229.675781 229.792969 L 229.15625 228.101562 L 231.886719 224.980469 L 231.886719 221.601562 L 232.796875 221.601562 L 233.449219 220.691406 L 236.699219 221.339844 L 236.4375 222.511719 L 240.082031 225.371094 L 242.292969 227.453125 L 243.851562 229.011719 L 244.113281 231.222656 L 245.804688 233.042969 L 244.632812 234.734375 L 244.632812 236.296875 L 245.671875 238.246094 L 244.632812 238.636719 L 244.503906 240.066406 L 246.0625 243.058594 L 247.492188 247.21875 L 248.792969 250.472656 L 249.703125 252.941406 C 249.78125 249.703125 251.605469 247.859375 254.125 246.570312 C 260.132812 246.695312 259.101562 242.34375 260.109375 239.285156 L 263.230469 236.035156 L 265.699219 233.304688 L 265.832031 231.875 L 263.230469 227.191406 L 260.238281 226.023438 L 257.636719 227.582031 L 255.167969 227.191406 L 252.046875 225.5 L 250.875 223.421875 L 249.183594 223.421875 L 247.363281 225.113281 L 245.28125 225.890625 L 243.722656 224.460938 L 242.679688 224.722656 L 242.292969 227.710938 L 240.992188 227.191406 L 240.992188 224.589844 L 239.820312 223.550781 L 236.699219 221.339844 L 233.449219 220.820312 C 229.261719 218.046875 230.148438 215.269531 230.71875 212.496094 L 232.796875 206.253906 L 232.796875 204.171875 L 230.976562 203.394531 L 230.585938 201.832031 L 230.976562 200.921875 L 230.328125 199.101562 L 229.285156 197.28125 L 234.359375 181.933594 L 234.488281 185.1875 L 235.660156 185.445312 L 236.960938 191.429688 L 237.738281 196.371094 L 237.738281 200.273438 L 236.4375 202.742188 L 234.488281 203.652344 L 232.925781 204.304688 L 232.796875 206.253906 L 233.835938 205.734375 L 237.089844 204.304688 L 238 205.082031 L 239.300781 204.824219 L 240.082031 202.871094 L 241.769531 202.871094 L 245.800781 203.132812 L 248.011719 203.132812 L 248.792969 200.011719 L 246.84375 196.761719 C 244.40625 193.8125 244.5625 190.863281 245.023438 187.917969 C 247.835938 182.929688 245.273438 177.945312 244.503906 172.960938 L 243.460938 168.539062 L 243.589844 165.546875 L 244.632812 162.558594 L 243.332031 161.90625 L 243.203125 160.085938 L 227.984375 160.734375 L 229.546875 161.777344 L 226.945312 165.15625 L 225.90625 171.660156 L 226.164062 174.652344 L 226.945312 174.78125 L 226.164062 176.082031 L 225.644531 179.59375 L 224.605469 181.542969 L 223.824219 178.164062 L 223.824219 176.34375 L 220.183594 169.449219 L 222.785156 167.367188 L 222.261719 166.589844 L 221.613281 166.457031 L 223.042969 165.808594 L 222.785156 165.15625 L 221.742188 164.507812 L 222.523438 162.6875 L 223.5625 161.125 L 225.644531 160.085938 L 227.996094 160.734375 L 243.144531 160.066406 L 246.203125 153.582031 C 253.449219 148.378906 253.519531 153.101562 254.664062 156.34375 L 254.664062 160.207031 L 254.847656 166.457031 L 253.742188 176.757812 L 253.191406 188.527344 C 253.632812 192.453125 256.117188 196.375 249.144531 200.300781 L 248.042969 203.425781 L 253.925781 201.402344 L 262.386719 206.921875 L 263.125 208.023438 L 263.675781 205.816406 L 263.675781 199.929688 L 262.203125 198.644531 C 259.824219 195.773438 258.125 192.734375 259.628906 188.894531 L 261.285156 185.953125 L 261.285156 179.699219 C 259.609375 176.363281 261.683594 174.632812 263.308594 172.710938 L 262.570312 167.191406 C 262.480469 160.042969 269.054688 155.894531 271.03125 162.777344 C 271.949219 164.589844 272.976562 166.378906 271.03125 168.664062 C 271.089844 173.324219 272.617188 177.984375 270.480469 182.640625 L 270.480469 190.183594 L 267.539062 198.828125 C 266.636719 201.34375 265.03125 203.296875 266.433594 207.65625 L 265.882812 213.910156 L 266.988281 216.300781 L 268.640625 215.382812 L 270.296875 213.910156 L 271.769531 213.542969 L 278.445312 216.269531 Z M 278.445312 216.265625 " fill-opacity="1" fill-rule="nonzero"/></g><path fill="#ff765e" d="M 229.75 229.480469 L 222.335938 239.949219 L 221.101562 239.949219 L 219.734375 238.972656 L 219.472656 239.820312 L 215.050781 239.882812 L 214.921875 242.226562 L 216.742188 245.929688 L 219.539062 248.53125 L 219.539062 250.027344 L 219.34375 250.546875 L 219.472656 253.28125 L 219.539062 254.449219 L 220.839844 255.359375 L 227.015625 261.082031 L 227.148438 260.105469 L 228.316406 260.105469 L 229.226562 261.148438 L 228.253906 261.992188 L 230.332031 263.164062 L 231.503906 262.1875 L 230.136719 261.210938 L 230.789062 260.496094 L 231.765625 260.433594 L 232.285156 261.34375 L 239.4375 255.230469 L 240.152344 253.277344 L 239.828125 248.855469 L 242.296875 246.582031 L 244.3125 242.679688 L 244.378906 240.273438 L 239.761719 240.144531 L 239.566406 239.363281 L 238.398438 239.429688 L 238.203125 240.273438 L 237.097656 240.144531 Z M 229.75 229.480469 " fill-opacity="1" fill-rule="nonzero"/><path fill="#fe9d27" d="M 207.964844 227.007812 L 205.949219 227.007812 L 205.6875 227.589844 L 205.167969 228.175781 L 206.792969 228.957031 L 207.316406 229.867188 L 209.785156 229.800781 L 209.785156 229.023438 L 208.679688 228.175781 L 208.226562 227.722656 Z M 207.964844 227.007812 " fill-opacity="1" fill-rule="nonzero"/><path fill="#fe6676" d="M 251.175781 226.554688 L 253.191406 226.554688 L 253.453125 227.140625 L 253.972656 227.726562 L 252.347656 228.503906 L 251.824219 229.414062 L 249.355469 229.351562 L 249.355469 228.570312 L 250.460938 227.726562 L 250.914062 227.269531 Z M 251.175781 226.554688 " fill-opacity="1" fill-rule="nonzero"/><path fill="#ff765e" d="M 229.671875 196.273438 C 227.691406 191.445312 226.179688 186.375 224.613281 181.546875 L 225.554688 179.574219 L 226.132812 176.03125 L 226.914062 174.835938 L 226.546875 174.605469 C 224.308594 176.097656 225.238281 163.929688 229.351562 161.820312 L 229.808594 161.5 L 232.382812 164.949219 C 233.007812 168.226562 234.945312 172.007812 233.085938 174.488281 L 232.382812 174.605469 L 233.074219 175.847656 L 233.789062 179.574219 L 234.589844 181.132812 C 233.1875 186.101562 231.613281 191.308594 229.671875 196.273438 Z M 229.671875 196.273438 " fill-opacity="1" fill-rule="nonzero"/><path fill="#ff765e" d="M 265.261719 214.644531 L 263.191406 215.746094 L 261.582031 216.804688 L 260.523438 217.585938 L 259.925781 218.414062 L 259.742188 221.769531 L 258.269531 222.089844 L 256.660156 222.136719 L 255.878906 221.769531 L 254.777344 220.804688 L 254.867188 221.863281 L 255.050781 222.875 L 256.753906 223.425781 L 256.890625 224.113281 C 256.890625 224.113281 255.835938 224.757812 255.648438 224.757812 C 255.464844 224.757812 253.71875 224.757812 253.488281 224.710938 C 253.257812 224.667969 251.28125 224.34375 251.28125 224.34375 C 251.28125 224.34375 250.914062 222.277344 251.097656 222.136719 C 251.28125 222 252.15625 220.527344 252.15625 220.527344 L 253.214844 219.976562 L 252.707031 217.769531 L 253.582031 216.480469 L 254.316406 215.882812 L 254.960938 215.929688 L 255.007812 215.148438 C 255.007812 215.148438 255.191406 213.953125 255.421875 213.816406 C 255.648438 213.675781 257.351562 212.480469 257.535156 212.34375 C 257.71875 212.207031 259.328125 211.609375 259.652344 211.425781 C 259.972656 211.238281 260.984375 210.734375 261.488281 210.78125 C 261.996094 210.828125 264.109375 211.652344 264.109375 211.652344 L 265.304688 213.402344 Z M 265.261719 214.644531 " fill-opacity="1" fill-rule="nonzero"/><path fill="#fe6676" d="M 266.363281 214.644531 L 265.445312 214.644531 L 260.9375 217.171875 L 259.972656 218.367188 L 259.699219 221.769531 L 258.089844 222.089844 L 256.523438 222.089844 L 255.375 221.355469 L 254.871094 220.941406 L 255.007812 222.875 L 256.894531 223.472656 L 256.847656 224.070312 L 255.835938 224.710938 L 253.304688 224.757812 L 251.28125 224.160156 L 252.523438 226.089844 C 252.523438 226.089844 253.71875 226.964844 253.996094 227.058594 C 254.273438 227.148438 255.652344 227.378906 255.652344 227.378906 L 256.292969 227.746094 L 257.03125 228.023438 L 258.914062 226.691406 L 260.15625 226.414062 L 261.535156 224.988281 L 263.007812 223.242188 C 263.007812 223.242188 263.144531 221.863281 263.421875 221.632812 C 263.699219 221.402344 264.433594 220.941406 264.433594 220.941406 L 264.894531 219.332031 L 265.859375 217.632812 L 266.273438 217.261719 Z M 266.363281 214.644531 " fill-opacity="1" fill-rule="nonzero"/><path fill="#ff765e" d="M 193.734375 214.445312 L 195.804688 215.550781 L 197.414062 216.609375 L 198.472656 217.390625 L 199.070312 218.21875 L 199.253906 221.574219 L 200.726562 221.894531 L 202.335938 221.941406 L 203.117188 221.574219 L 204.21875 220.609375 L 204.128906 221.664062 L 203.945312 222.675781 L 202.242188 223.230469 L 202.105469 223.917969 C 202.105469 223.917969 203.160156 224.5625 203.347656 224.5625 C 203.53125 224.5625 205.277344 224.5625 205.507812 224.515625 C 205.738281 224.46875 207.714844 224.148438 207.714844 224.148438 C 207.714844 224.148438 208.082031 222.078125 207.898438 221.941406 C 207.714844 221.804688 206.839844 220.332031 206.839844 220.332031 L 205.78125 219.78125 L 206.289062 217.574219 L 205.414062 216.285156 L 204.679688 215.6875 L 204.035156 215.734375 L 203.988281 214.953125 C 203.988281 214.953125 203.804688 213.757812 203.574219 213.617188 C 203.347656 213.480469 201.644531 212.285156 201.460938 212.148438 C 201.277344 212.007812 199.667969 211.410156 199.34375 211.226562 C 199.023438 211.042969 198.011719 210.539062 197.507812 210.585938 C 197 210.628906 194.886719 211.457031 194.886719 211.457031 L 193.691406 213.203125 Z M 193.734375 214.445312 " fill-opacity="1" fill-rule="nonzero"/><path fill="#fe9d27" d="M 192.632812 214.445312 L 193.550781 214.445312 L 198.058594 216.976562 L 199.023438 218.171875 L 199.300781 221.574219 L 200.910156 221.894531 L 202.472656 221.894531 L 203.621094 221.160156 L 204.128906 220.746094 L 203.988281 222.675781 L 202.105469 223.273438 L 202.152344 223.871094 L 203.160156 224.515625 L 205.691406 224.5625 L 207.714844 223.964844 L 206.472656 225.894531 C 206.472656 225.894531 205.277344 226.769531 205 226.859375 C 204.726562 226.953125 203.347656 227.183594 203.347656 227.183594 L 202.703125 227.550781 L 201.964844 227.828125 L 200.082031 226.492188 L 198.839844 226.21875 L 197.460938 224.792969 L 195.988281 223.042969 C 195.988281 223.042969 195.851562 221.664062 195.574219 221.433594 C 195.300781 221.207031 194.5625 220.746094 194.5625 220.746094 L 194.105469 219.136719 L 193.136719 217.433594 L 192.722656 217.066406 Z M 192.632812 214.445312 " fill-opacity="1" fill-rule="nonzero"/><g clip-path="url(#858506f9af)"><path fill="#1fa8e3" d="M 96.558594 215.953125 C 95.261719 217.902344 94.8125 216.441406 94.480469 214.523438 L 89.667969 206.847656 L 91.488281 207.238281 L 91.488281 206.71875 L 89.667969 205.808594 L 87.328125 196.835938 L 85.765625 197.226562 L 85.636719 195.015625 L 85.117188 190.332031 C 83.933594 176.996094 70.558594 189.203125 74.710938 191.632812 C 75.816406 194.191406 76.078125 196.746094 80.433594 199.304688 C 82.394531 202.554688 82.527344 207.113281 87.585938 208.148438 L 88.757812 208.796875 C 87.847656 212.269531 89.445312 214.992188 93.4375 216.992188 C 94.207031 218.726562 94.820312 220.460938 93.179688 222.195312 L 94.21875 222.714844 L 93.179688 223.753906 L 93.050781 226.484375 L 93.960938 227.785156 L 93.699219 228.828125 L 94.347656 229.996094 L 93.828125 231.558594 L 94.089844 232.859375 L 98.640625 235.460938 L 97.601562 233.636719 L 101.761719 235.847656 L 99.550781 235.460938 L 101.371094 237.410156 C 99.492188 240.878906 98.945312 244.183594 100.980469 247.164062 L 100.722656 249.765625 L 99.941406 249.113281 C 97.433594 254.429688 100.917969 261.375 103.582031 268.101562 L 107.222656 268.230469 L 109.695312 270.183594 L 113.726562 270.183594 L 118.800781 266.933594 L 122.832031 265.5 L 125.820312 266.800781 L 128.03125 266.410156 L 128.03125 267.320312 L 131.542969 267.0625 L 129.074219 266.410156 L 129.722656 265.5 L 131.804688 266.019531 L 134.015625 265.371094 L 134.664062 263.289062 L 134.144531 262.378906 L 134.535156 261.46875 L 137.785156 261.46875 L 136.355469 262.121094 L 136.355469 262.898438 L 135.445312 262.898438 L 136.226562 263.550781 L 134.796875 263.550781 L 134.015625 265.5 L 135.316406 265.5 L 135.574219 267.582031 L 137.265625 267.582031 L 137.394531 265.632812 L 140.386719 263.8125 L 140.777344 265.5 L 144.808594 262.769531 L 143.769531 261.988281 L 145.070312 260.949219 L 144.289062 259.910156 L 142.988281 259.910156 L 142.859375 261.078125 L 135.574219 254.445312 L 135.183594 253.015625 L 135.183594 250.414062 L 135.445312 248.464844 L 132.453125 245.601562 L 130.761719 242.09375 L 131.167969 240.011719 L 135.445312 239.882812 L 135.445312 239.230469 L 135.980469 239.996094 L 136.617188 240.011719 L 138.441406 240.285156 L 140.777344 236.238281 L 141.425781 235.199219 L 145.492188 230.121094 L 145.847656 227.785156 L 143.117188 224.664062 L 143.117188 221.285156 L 142.207031 221.285156 L 141.558594 220.375 L 138.304688 221.023438 L 138.566406 222.195312 L 134.925781 225.054688 L 132.714844 227.136719 L 131.152344 228.695312 L 130.894531 230.90625 L 129.203125 232.726562 L 130.375 234.417969 L 130.375 235.980469 L 129.332031 237.929688 L 130.375 238.320312 L 130.503906 239.75 L 128.941406 242.742188 L 127.511719 246.902344 L 126.210938 250.15625 L 125.300781 252.625 C 125.222656 249.386719 123.398438 247.539062 120.878906 246.253906 C 114.871094 246.378906 115.90625 242.027344 114.898438 238.96875 L 111.777344 235.71875 L 109.304688 232.988281 L 109.175781 231.558594 L 111.777344 226.875 L 114.765625 225.707031 L 117.367188 227.265625 L 119.839844 226.875 L 122.960938 225.183594 L 124.132812 223.105469 L 125.820312 223.105469 L 127.640625 224.792969 L 129.722656 225.574219 L 131.285156 224.144531 L 132.324219 224.40625 L 132.714844 227.394531 L 134.015625 226.875 L 134.015625 224.273438 L 135.183594 223.234375 L 138.304688 221.023438 L 141.558594 220.503906 C 145.742188 217.730469 144.855469 214.953125 144.289062 212.179688 L 142.207031 205.9375 L 142.207031 203.855469 L 144.027344 203.078125 L 144.417969 201.515625 L 144.027344 200.605469 L 144.679688 198.785156 L 145.71875 196.964844 L 140.648438 181.617188 L 140.515625 184.867188 L 139.347656 185.128906 L 138.046875 191.113281 L 137.265625 196.054688 L 137.265625 199.953125 L 138.566406 202.425781 L 140.515625 203.335938 L 142.078125 203.988281 L 142.207031 205.9375 L 141.167969 205.417969 L 137.917969 203.988281 L 137.007812 204.765625 L 135.707031 204.507812 L 134.925781 202.554688 L 133.234375 202.554688 L 129.203125 202.816406 L 126.992188 202.816406 L 126.210938 199.695312 L 128.164062 196.445312 C 130.601562 193.496094 130.445312 190.546875 129.984375 187.601562 C 127.167969 182.613281 129.730469 177.628906 130.503906 172.644531 L 131.542969 168.222656 L 131.414062 165.230469 L 130.375 162.238281 L 131.675781 161.589844 L 131.804688 159.769531 L 147.019531 160.417969 L 145.460938 161.460938 L 148.0625 164.839844 L 149.101562 171.34375 L 148.839844 174.335938 L 148.0625 174.464844 L 148.839844 175.765625 L 149.359375 179.277344 L 150.402344 181.226562 L 151.183594 177.847656 L 151.183594 176.027344 L 154.824219 169.132812 L 152.222656 167.050781 L 152.742188 166.273438 L 153.394531 166.140625 L 151.960938 165.492188 L 152.222656 164.839844 L 153.261719 164.191406 L 152.480469 162.371094 L 151.441406 160.808594 L 149.359375 159.769531 L 147.011719 160.417969 L 131.859375 159.75 L 128.804688 153.265625 C 121.554688 148.070312 121.488281 152.792969 120.339844 156.035156 L 120.339844 159.898438 L 120.15625 166.152344 L 121.261719 176.449219 L 121.8125 188.222656 C 121.371094 192.144531 118.890625 196.066406 125.859375 199.992188 L 126.960938 203.117188 L 121.078125 201.09375 L 112.617188 206.613281 L 111.878906 207.714844 L 111.328125 205.507812 L 111.328125 199.625 L 112.800781 198.335938 C 115.179688 195.46875 116.878906 192.429688 115.375 188.589844 L 113.71875 185.644531 L 113.71875 179.390625 C 115.398438 176.054688 113.320312 174.324219 111.695312 172.402344 L 112.433594 166.890625 C 112.523438 159.738281 105.949219 155.589844 103.972656 162.476562 C 103.058594 164.285156 102.027344 166.074219 103.972656 168.359375 C 103.914062 173.019531 102.390625 177.679688 104.523438 182.339844 L 104.523438 189.878906 L 107.46875 198.523438 C 108.371094 201.039062 109.976562 202.992188 108.570312 207.351562 L 109.121094 213.605469 L 108.019531 215.996094 L 106.363281 215.078125 L 104.707031 213.605469 L 103.238281 213.238281 L 96.558594 215.964844 Z M 96.558594 215.953125 " fill-opacity="1" fill-rule="nonzero"/></g><g clip-path="url(#226effd732)"><path fill="#e84ea9" d="M 194.222656 216.265625 C 195.523438 218.21875 195.96875 216.757812 196.304688 214.835938 L 201.113281 207.164062 L 199.292969 207.554688 L 199.292969 207.035156 L 201.113281 206.125 L 203.457031 197.148438 L 205.015625 197.539062 L 205.144531 195.328125 L 205.667969 190.648438 C 206.847656 177.3125 220.222656 189.519531 216.070312 191.949219 C 214.964844 194.507812 214.703125 197.0625 210.347656 199.621094 C 208.386719 202.871094 208.257812 207.429688 203.195312 208.464844 L 202.023438 209.117188 C 202.933594 212.585938 201.339844 215.308594 197.34375 217.308594 C 196.574219 219.042969 195.964844 220.777344 197.605469 222.511719 L 196.5625 223.03125 L 197.605469 224.070312 L 197.734375 226.800781 L 196.824219 228.101562 L 197.082031 229.144531 L 196.433594 230.3125 L 196.953125 231.875 L 196.691406 233.175781 L 192.140625 235.777344 L 193.183594 233.953125 L 189.019531 236.164062 L 191.230469 235.777344 L 189.410156 237.726562 C 191.289062 241.195312 191.835938 244.5 189.800781 247.480469 L 190.0625 250.082031 L 190.839844 249.429688 C 193.347656 254.746094 189.867188 261.695312 187.199219 268.417969 L 183.558594 268.550781 L 181.085938 270.5 L 177.054688 270.5 L 171.984375 267.25 L 167.953125 265.816406 L 164.960938 267.117188 L 162.75 266.726562 L 162.75 267.636719 L 159.238281 267.378906 L 161.710938 266.726562 L 161.058594 265.816406 L 158.976562 266.339844 L 156.765625 265.6875 L 156.117188 263.605469 L 156.636719 262.695312 L 156.246094 261.785156 L 152.996094 261.785156 L 154.425781 262.4375 L 154.425781 263.214844 L 155.335938 263.214844 L 154.558594 263.867188 L 155.988281 263.867188 L 156.769531 265.816406 L 155.46875 265.816406 L 155.207031 267.898438 L 153.515625 267.898438 L 153.386719 265.949219 L 150.394531 264.128906 L 150.003906 265.816406 L 145.972656 263.085938 L 147.015625 262.304688 L 145.714844 261.265625 L 146.492188 260.226562 L 147.792969 260.226562 L 147.925781 261.394531 L 155.207031 254.761719 L 155.597656 253.332031 L 155.597656 250.730469 L 155.335938 248.78125 L 158.328125 245.917969 L 160.019531 242.410156 L 160.019531 240.328125 L 155.335938 240.199219 L 155.335938 239.546875 L 154.035156 239.546875 L 154.167969 240.328125 L 152.867188 240.199219 L 150.003906 236.554688 L 149.355469 235.515625 L 145.453125 229.792969 L 144.933594 228.101562 L 147.664062 224.980469 L 147.664062 221.601562 L 148.574219 221.601562 L 149.226562 220.691406 L 152.476562 221.339844 L 152.214844 222.511719 L 155.859375 225.371094 L 158.070312 227.453125 L 159.628906 229.011719 L 159.890625 231.222656 L 161.578125 233.042969 L 160.410156 234.734375 L 160.410156 236.296875 L 161.449219 238.246094 L 160.410156 238.636719 L 160.28125 240.066406 L 161.839844 243.058594 L 163.269531 247.21875 L 164.570312 250.472656 L 165.480469 252.941406 C 165.558594 249.703125 167.382812 247.859375 169.902344 246.570312 C 175.910156 246.695312 174.878906 242.34375 175.886719 239.285156 L 179.007812 236.035156 L 181.476562 233.304688 L 181.609375 231.875 L 179.007812 227.191406 L 176.015625 226.023438 L 173.414062 227.582031 L 170.945312 227.191406 L 167.824219 225.5 L 166.652344 223.421875 L 164.960938 223.421875 L 163.140625 225.113281 L 161.058594 225.890625 L 159.5 224.460938 L 158.457031 224.722656 L 158.070312 227.710938 L 156.769531 227.191406 L 156.769531 224.589844 L 155.597656 223.550781 L 152.476562 221.339844 L 149.226562 220.820312 C 145.039062 218.046875 145.925781 215.269531 146.492188 212.496094 L 148.574219 206.253906 L 148.574219 204.171875 L 146.753906 203.394531 L 146.363281 201.832031 L 146.753906 200.921875 L 146.105469 199.101562 L 145.0625 197.28125 L 150.136719 181.933594 L 150.265625 185.1875 L 151.4375 185.445312 L 152.734375 191.429688 L 153.515625 196.371094 L 153.515625 200.273438 L 152.214844 202.742188 L 150.265625 203.652344 L 148.703125 204.304688 L 148.574219 206.253906 L 149.613281 205.734375 L 152.867188 204.304688 L 153.777344 205.082031 L 155.078125 204.824219 L 155.855469 202.871094 L 157.546875 202.871094 L 161.578125 203.132812 L 163.789062 203.132812 L 164.570312 200.011719 L 162.621094 196.761719 C 160.183594 193.8125 160.339844 190.863281 160.800781 187.917969 C 163.613281 182.929688 161.050781 177.945312 160.277344 172.960938 L 159.238281 168.539062 L 159.367188 165.546875 L 160.410156 162.558594 L 159.109375 161.90625 L 158.980469 160.085938 L 143.761719 160.734375 L 145.324219 161.777344 L 142.722656 165.15625 L 141.683594 171.660156 L 141.941406 174.652344 L 142.722656 174.78125 L 141.941406 176.082031 L 141.421875 179.59375 L 140.382812 181.542969 L 139.601562 178.164062 L 139.601562 176.34375 L 135.960938 169.449219 L 138.558594 167.367188 L 138.039062 166.589844 L 137.390625 166.457031 L 138.820312 165.808594 L 138.558594 165.15625 L 137.519531 164.507812 L 138.300781 162.6875 L 139.339844 161.125 L 141.421875 160.085938 L 143.773438 160.734375 L 158.921875 160.066406 L 161.980469 153.582031 C 169.222656 148.378906 169.296875 153.101562 170.441406 156.34375 L 170.441406 160.207031 L 170.625 166.457031 L 169.519531 176.757812 L 168.96875 188.527344 C 169.410156 192.453125 171.890625 196.375 164.921875 200.300781 L 163.820312 203.425781 L 169.703125 201.402344 L 178.164062 206.921875 L 178.902344 208.023438 L 179.453125 205.816406 L 179.453125 199.929688 L 177.980469 198.644531 C 175.601562 195.773438 173.902344 192.734375 175.40625 188.894531 L 177.0625 185.953125 L 177.0625 179.699219 C 175.386719 176.363281 177.460938 174.632812 179.085938 172.710938 L 178.347656 167.191406 C 178.257812 160.042969 184.832031 155.894531 186.808594 162.777344 C 187.726562 164.589844 188.753906 166.378906 186.808594 168.664062 C 186.867188 173.324219 188.394531 177.984375 186.257812 182.640625 L 186.257812 190.183594 L 183.316406 198.828125 C 182.414062 201.34375 180.808594 203.296875 182.210938 207.65625 L 181.660156 213.910156 L 182.761719 216.300781 L 184.417969 215.382812 L 186.074219 213.910156 L 187.546875 213.542969 L 194.222656 216.269531 Z M 194.222656 216.265625 " fill-opacity="1" fill-rule="nonzero"/></g><path fill="#bb63b7" d="M 145.527344 229.480469 L 138.113281 239.949219 L 136.875 239.949219 L 135.511719 238.972656 L 135.25 239.820312 L 130.828125 239.882812 L 130.699219 242.226562 L 132.519531 245.929688 L 135.316406 248.53125 L 135.316406 250.027344 L 135.121094 250.546875 L 135.25 253.28125 L 135.316406 254.449219 L 136.617188 255.359375 L 142.792969 261.082031 L 142.925781 260.105469 L 144.09375 260.105469 L 145.003906 261.148438 L 144.03125 261.992188 L 146.109375 263.164062 L 147.28125 262.1875 L 145.914062 261.210938 L 146.566406 260.496094 L 147.539062 260.433594 L 148.0625 261.34375 L 155.214844 255.230469 L 155.929688 253.277344 L 155.605469 248.855469 L 158.074219 246.582031 L 160.089844 242.679688 L 160.15625 240.273438 L 155.539062 240.144531 L 155.34375 239.363281 L 154.171875 239.429688 L 153.976562 240.273438 L 152.875 240.144531 L 145.523438 229.480469 Z M 145.527344 229.480469 " fill-opacity="1" fill-rule="nonzero"/><path fill="#e84ea9" d="M 123.742188 227.007812 L 121.726562 227.007812 L 121.464844 227.589844 L 120.945312 228.175781 L 122.570312 228.957031 L 123.089844 229.867188 L 125.5625 229.800781 L 125.5625 229.023438 L 124.457031 228.175781 L 124.003906 227.722656 Z M 123.742188 227.007812 " fill-opacity="1" fill-rule="nonzero"/><path fill="#1fa8e3" d="M 166.953125 226.554688 L 168.96875 226.554688 L 169.230469 227.140625 L 169.75 227.726562 L 168.125 228.503906 L 167.601562 229.414062 L 165.132812 229.351562 L 165.132812 228.570312 L 166.238281 227.726562 L 166.691406 227.269531 Z M 166.953125 226.554688 " fill-opacity="1" fill-rule="nonzero"/><path fill="#bb63b7" d="M 145.449219 196.273438 C 143.46875 191.445312 141.957031 186.375 140.390625 181.546875 L 141.332031 179.574219 L 141.910156 176.03125 L 142.691406 174.835938 L 142.320312 174.605469 C 140.082031 176.097656 141.015625 163.929688 145.128906 161.820312 L 145.585938 161.5 L 148.160156 164.949219 C 148.785156 168.226562 150.722656 172.007812 148.863281 174.488281 L 148.160156 174.605469 L 148.851562 175.847656 L 149.566406 179.574219 L 150.367188 181.132812 C 148.960938 186.101562 147.390625 191.308594 145.449219 196.273438 Z M 145.449219 196.273438 " fill-opacity="1" fill-rule="nonzero"/><path fill="#bb63b7" d="M 181.035156 214.644531 L 178.96875 215.746094 L 177.359375 216.804688 L 176.300781 217.585938 L 175.703125 218.414062 L 175.519531 221.769531 L 174.046875 222.089844 L 172.4375 222.136719 L 171.65625 221.769531 L 170.554688 220.804688 L 170.644531 221.863281 L 170.828125 222.875 L 172.53125 223.425781 L 172.667969 224.113281 C 172.667969 224.113281 171.609375 224.757812 171.425781 224.757812 C 171.242188 224.757812 169.496094 224.757812 169.265625 224.710938 C 169.035156 224.667969 167.058594 224.34375 167.058594 224.34375 C 167.058594 224.34375 166.691406 222.277344 166.875 222.136719 C 167.058594 222 167.933594 220.527344 167.933594 220.527344 L 168.992188 219.976562 L 168.484375 217.769531 L 169.359375 216.480469 L 170.09375 215.882812 L 170.738281 215.929688 L 170.785156 215.148438 C 170.785156 215.148438 170.96875 213.953125 171.199219 213.816406 C 171.425781 213.675781 173.128906 212.480469 173.3125 212.34375 C 173.496094 212.207031 175.105469 211.609375 175.425781 211.425781 C 175.75 211.238281 176.761719 210.734375 177.265625 210.78125 C 177.773438 210.828125 179.886719 211.652344 179.886719 211.652344 L 181.082031 213.402344 Z M 181.035156 214.644531 " fill-opacity="1" fill-rule="nonzero"/><path fill="#1fa8e3" d="M 182.140625 214.644531 L 181.222656 214.644531 L 176.714844 217.171875 L 175.75 218.367188 L 175.472656 221.769531 L 173.863281 222.089844 L 172.300781 222.089844 L 171.152344 221.355469 L 170.644531 220.941406 L 170.785156 222.875 L 172.667969 223.472656 L 172.625 224.070312 L 171.613281 224.710938 L 169.082031 224.757812 L 167.058594 224.160156 L 168.300781 226.089844 C 168.300781 226.089844 169.496094 226.964844 169.773438 227.058594 C 170.046875 227.148438 171.429688 227.378906 171.429688 227.378906 L 172.070312 227.746094 L 172.808594 228.023438 L 174.691406 226.691406 L 175.933594 226.414062 L 177.3125 224.988281 L 178.785156 223.242188 C 178.785156 223.242188 178.921875 221.863281 179.199219 221.632812 C 179.476562 221.402344 180.210938 220.941406 180.210938 220.941406 L 180.671875 219.332031 L 181.636719 217.632812 L 182.050781 217.261719 Z M 182.140625 214.644531 " fill-opacity="1" fill-rule="nonzero"/><path fill="#bb63b7" d="M 109.511719 214.445312 L 111.582031 215.550781 L 113.191406 216.609375 L 114.25 217.390625 L 114.847656 218.21875 L 115.03125 221.574219 L 116.503906 221.894531 L 118.113281 221.941406 L 118.894531 221.574219 L 119.996094 220.609375 L 119.90625 221.664062 L 119.71875 222.675781 L 118.019531 223.230469 L 117.882812 223.917969 C 117.882812 223.917969 118.9375 224.5625 119.121094 224.5625 C 119.308594 224.5625 121.054688 224.5625 121.285156 224.515625 C 121.515625 224.46875 123.492188 224.148438 123.492188 224.148438 C 123.492188 224.148438 123.859375 222.078125 123.675781 221.941406 C 123.492188 221.804688 122.617188 220.332031 122.617188 220.332031 L 121.558594 219.78125 L 122.066406 217.574219 L 121.191406 216.285156 L 120.457031 215.6875 L 119.8125 215.734375 L 119.765625 214.953125 C 119.765625 214.953125 119.582031 213.757812 119.351562 213.617188 C 119.121094 213.480469 117.421875 212.285156 117.238281 212.148438 C 117.054688 212.007812 115.445312 211.410156 115.121094 211.226562 C 114.800781 211.042969 113.789062 210.539062 113.285156 210.585938 C 112.777344 210.628906 110.664062 211.457031 110.664062 211.457031 L 109.46875 213.203125 Z M 109.511719 214.445312 " fill-opacity="1" fill-rule="nonzero"/><path fill="#e84ea9" d="M 108.410156 214.445312 L 109.328125 214.445312 L 113.835938 216.976562 L 114.800781 218.171875 L 115.078125 221.574219 L 116.6875 221.894531 L 118.25 221.894531 L 119.398438 221.160156 L 119.90625 220.746094 L 119.765625 222.675781 L 117.882812 223.273438 L 117.925781 223.871094 L 118.9375 224.515625 L 121.46875 224.5625 L 123.492188 223.964844 L 122.25 225.894531 C 122.25 225.894531 121.054688 226.769531 120.777344 226.859375 C 120.503906 226.953125 119.121094 227.183594 119.121094 227.183594 L 118.480469 227.550781 L 117.742188 227.828125 L 115.859375 226.492188 L 114.617188 226.21875 L 113.238281 224.792969 L 111.765625 223.042969 C 111.765625 223.042969 111.628906 221.664062 111.351562 221.433594 C 111.078125 221.207031 110.339844 220.746094 110.339844 220.746094 L 109.882812 219.136719 L 108.914062 217.433594 L 108.5 217.066406 Z M 108.410156 214.445312 " fill-opacity="1" fill-rule="nonzero"/></svg>