<svg xmlns="http://www.w3.org/2000/svg" xmlns:xlink="http://www.w3.org/1999/xlink" width="500" zoomAndPan="magnify" viewBox="0 0 375 374.999991" height="500" preserveAspectRatio="xMidYMid meet" version="1.0"><defs><clipPath id="d6eee736bd"><path d="M 241 104 L 374 104 L 374 299.269531 L 241 299.269531 Z M 241 104 " clip-rule="nonzero"/></clipPath><clipPath id="84f0fab904"><path d="M 103 104 L 236 104 L 236 299.269531 L 103 299.269531 Z M 103 104 " clip-rule="nonzero"/></clipPath></defs><path fill="#fe6676" d="M 176.957031 209.96875 C 174.832031 213.15625 174.101562 210.765625 173.558594 207.628906 L 165.691406 195.085938 L 168.667969 195.722656 L 168.667969 194.875 L 165.691406 193.386719 L 161.863281 178.714844 L 159.3125 179.355469 L 159.101562 175.742188 L 158.25 168.085938 C 156.320312 146.285156 134.457031 166.242188 141.242188 170.210938 C 143.050781 174.390625 143.476562 178.574219 150.597656 182.753906 C 153.804688 188.066406 154.015625 195.519531 162.289062 197.210938 L 164.203125 198.273438 C 162.71875 203.949219 165.324219 208.398438 171.855469 211.667969 C 173.109375 214.5 174.113281 217.335938 171.429688 220.171875 L 173.132812 221.019531 L 171.429688 222.722656 L 171.21875 227.1875 L 172.707031 229.3125 L 172.28125 231.011719 L 173.34375 232.925781 L 172.492188 235.476562 L 172.917969 237.601562 L 180.359375 241.855469 L 178.660156 238.878906 L 185.460938 242.492188 L 181.847656 241.855469 L 184.824219 245.042969 C 181.753906 250.714844 180.859375 256.117188 184.1875 260.988281 L 183.761719 265.242188 L 182.484375 264.179688 C 178.386719 272.863281 184.082031 284.222656 188.4375 295.21875 L 194.390625 295.429688 L 198.429688 298.617188 L 205.019531 298.617188 L 213.3125 293.304688 L 219.902344 290.964844 L 224.792969 293.089844 L 228.40625 292.453125 L 228.40625 293.941406 L 234.144531 293.515625 L 230.105469 292.453125 L 231.167969 290.964844 L 234.570312 291.816406 L 238.183594 290.753906 L 239.25 287.351562 L 238.398438 285.863281 L 239.035156 284.375 L 244.351562 284.375 L 242.011719 285.4375 L 242.011719 286.714844 L 240.523438 286.714844 L 241.800781 287.777344 L 239.460938 287.777344 L 238.183594 290.964844 L 240.3125 290.964844 L 240.738281 294.367188 L 243.5 294.367188 L 243.714844 291.175781 L 248.601562 288.203125 L 249.242188 290.964844 L 255.832031 286.5 L 254.128906 285.226562 L 256.257812 283.523438 L 254.980469 281.824219 L 252.855469 281.824219 L 252.640625 283.738281 L 240.734375 272.894531 L 240.097656 270.554688 L 240.097656 266.304688 L 240.523438 263.113281 L 235.632812 258.4375 L 232.871094 252.699219 L 233.53125 249.296875 L 240.523438 249.082031 L 240.523438 248.019531 L 241.398438 249.273438 L 242.4375 249.296875 L 245.421875 249.742188 L 249.238281 243.128906 L 250.304688 241.429688 L 256.945312 233.132812 L 257.53125 229.3125 L 253.066406 224.210938 L 253.066406 218.683594 L 251.578125 218.683594 L 250.515625 217.195312 L 245.199219 218.257812 L 245.625 220.171875 L 239.671875 224.847656 L 236.058594 228.25 L 233.507812 230.800781 L 233.082031 234.414062 L 230.320312 237.390625 L 232.234375 240.15625 L 232.234375 242.707031 L 230.53125 245.894531 L 232.234375 246.53125 L 232.445312 248.871094 L 229.894531 253.761719 L 227.554688 260.5625 L 225.429688 265.878906 L 223.941406 269.917969 C 223.8125 264.621094 220.832031 261.605469 216.714844 259.5 C 206.894531 259.707031 208.582031 252.589844 206.933594 247.59375 L 201.832031 242.28125 L 197.792969 237.816406 L 197.578125 235.476562 L 201.832031 227.824219 L 206.722656 225.910156 L 210.972656 228.460938 L 215.011719 227.824219 L 220.113281 225.058594 L 222.027344 221.660156 L 224.792969 221.660156 L 227.769531 224.421875 L 231.167969 225.699219 L 233.722656 223.359375 L 235.421875 223.785156 L 236.058594 228.675781 L 238.183594 227.824219 L 238.183594 223.570312 L 240.097656 221.871094 L 245.199219 218.257812 L 250.515625 217.40625 C 257.359375 212.871094 255.910156 208.335938 254.980469 203.800781 L 251.578125 193.597656 L 251.578125 190.195312 L 254.554688 188.917969 L 255.191406 186.367188 L 254.554688 184.878906 L 255.617188 181.902344 L 257.320312 178.925781 L 249.027344 153.839844 L 248.816406 159.15625 L 246.902344 159.582031 L 244.777344 169.359375 L 243.5 177.4375 L 243.5 183.816406 L 245.625 187.855469 L 248.816406 189.34375 L 251.367188 190.40625 L 251.578125 193.597656 L 249.878906 192.746094 L 244.5625 190.40625 L 243.074219 191.683594 L 240.949219 191.257812 L 239.671875 188.066406 L 236.910156 188.066406 L 230.320312 188.492188 L 226.707031 188.492188 L 225.429688 183.390625 L 228.617188 178.078125 C 232.605469 173.257812 232.347656 168.4375 231.59375 163.621094 C 226.996094 155.46875 231.179688 147.320312 232.445312 139.171875 L 234.144531 131.941406 L 233.933594 127.054688 L 232.234375 122.164062 L 234.359375 121.101562 L 234.570312 118.125 L 259.445312 119.1875 L 256.894531 120.886719 L 261.144531 126.414062 L 262.847656 137.046875 L 262.421875 141.933594 L 261.144531 142.148438 L 262.421875 144.273438 L 263.273438 150.015625 L 264.972656 153.203125 L 266.25 147.675781 L 266.25 144.699219 L 272.199219 133.429688 L 267.949219 130.03125 L 268.800781 128.753906 L 269.863281 128.542969 L 267.523438 127.480469 L 267.949219 126.414062 L 269.648438 125.351562 L 268.375 122.375 L 266.671875 119.824219 L 263.273438 118.125 L 259.429688 119.183594 L 234.664062 118.09375 L 229.664062 107.496094 C 217.816406 99 217.707031 106.722656 215.832031 112.019531 L 215.832031 118.335938 L 215.53125 128.558594 L 217.335938 145.394531 L 218.238281 164.636719 C 217.519531 171.050781 213.460938 177.460938 224.851562 183.875 L 226.65625 188.988281 L 217.035156 185.679688 L 203.207031 194.699219 L 202.003906 196.503906 L 201.101562 192.898438 L 201.101562 183.273438 L 203.507812 181.171875 C 207.398438 176.480469 210.171875 171.511719 207.714844 165.234375 L 205.007812 160.425781 L 205.007812 150.203125 C 207.75 144.746094 204.359375 141.917969 201.703125 138.777344 L 202.90625 129.765625 C 203.054688 118.078125 192.308594 111.292969 189.074219 122.546875 C 187.578125 125.503906 185.898438 128.433594 189.074219 132.167969 C 188.980469 139.785156 186.488281 147.402344 189.976562 155.019531 L 189.976562 167.347656 L 194.789062 181.476562 C 196.261719 185.589844 198.886719 188.78125 196.59375 195.910156 L 197.496094 206.132812 L 195.691406 210.039062 L 192.984375 208.535156 L 190.277344 206.132812 L 187.875 205.53125 L 176.957031 209.988281 Z M 176.957031 209.96875 " fill-opacity="1" fill-rule="nonzero"/><g clip-path="url(#d6eee736bd)"><path fill="#fe9d27" d="M 336.605469 210.484375 C 338.730469 213.671875 339.464844 211.28125 340.007812 208.144531 L 347.875 195.601562 L 344.898438 196.238281 L 344.898438 195.386719 L 347.875 193.902344 L 351.699219 179.230469 L 354.25 179.871094 L 354.464844 176.253906 L 355.3125 168.601562 C 357.246094 146.804688 379.109375 166.757812 372.324219 170.726562 C 370.515625 174.910156 370.085938 179.089844 362.96875 183.273438 C 359.761719 188.582031 359.550781 196.035156 351.273438 197.726562 L 349.363281 198.789062 C 350.847656 204.464844 348.238281 208.914062 341.707031 212.183594 C 340.453125 215.019531 339.453125 217.851562 342.132812 220.6875 L 340.433594 221.539062 L 342.132812 223.238281 L 342.347656 227.703125 L 340.859375 229.828125 L 341.285156 231.53125 L 340.21875 233.445312 L 341.070312 235.996094 L 340.644531 238.121094 L 333.203125 242.371094 L 334.90625 239.394531 L 328.101562 243.011719 L 331.71875 242.371094 L 328.742188 245.5625 C 331.808594 251.234375 332.707031 256.632812 329.378906 261.507812 L 329.804688 265.757812 L 331.078125 264.695312 C 335.179688 273.382812 329.484375 284.742188 325.125 295.734375 L 319.171875 295.945312 L 315.132812 299.136719 L 308.542969 299.136719 L 300.253906 293.820312 L 293.664062 291.484375 L 288.773438 293.609375 L 285.160156 292.972656 L 285.160156 294.457031 L 279.417969 294.035156 L 283.457031 292.972656 L 282.394531 291.484375 L 278.992188 292.332031 L 275.378906 291.269531 L 274.316406 287.867188 L 275.167969 286.378906 L 274.527344 284.890625 L 269.214844 284.890625 L 271.550781 285.953125 L 271.550781 287.230469 L 273.039062 287.230469 L 271.765625 288.292969 L 274.105469 288.292969 L 275.378906 291.484375 L 273.253906 291.484375 L 272.828125 294.882812 L 270.0625 294.882812 L 269.851562 291.695312 L 264.960938 288.71875 L 264.324219 291.484375 L 257.734375 287.019531 L 259.433594 285.742188 L 257.308594 284.042969 L 258.585938 282.339844 L 260.710938 282.339844 L 260.921875 284.253906 L 272.828125 273.410156 L 273.464844 271.074219 L 273.464844 266.820312 L 273.042969 263.632812 L 277.929688 258.957031 L 280.695312 253.214844 L 280.695312 249.8125 L 273.042969 249.601562 L 273.042969 248.539062 L 270.914062 248.539062 L 271.128906 249.8125 L 269.003906 249.601562 L 264.324219 243.648438 L 263.261719 241.949219 L 256.882812 232.59375 L 256.035156 229.828125 L 260.5 224.726562 L 260.5 219.199219 L 261.988281 219.199219 L 263.050781 217.710938 L 268.363281 218.773438 L 267.9375 220.6875 L 273.890625 225.363281 L 277.503906 228.765625 L 280.058594 231.316406 L 280.480469 234.933594 L 283.246094 237.910156 L 281.332031 240.671875 L 281.332031 243.222656 L 283.035156 246.414062 L 281.332031 247.050781 L 281.121094 249.386719 L 283.671875 254.277344 L 286.007812 261.082031 L 288.136719 266.394531 L 289.625 270.433594 C 289.75 265.136719 292.734375 262.121094 296.851562 260.019531 C 306.671875 260.222656 304.984375 253.105469 306.632812 248.113281 L 311.734375 242.796875 L 315.773438 238.332031 L 315.984375 235.996094 L 311.734375 228.339844 L 306.84375 226.429688 L 302.59375 228.980469 L 298.550781 228.339844 L 293.449219 225.578125 L 291.535156 222.175781 L 288.773438 222.175781 L 285.796875 224.941406 L 282.394531 226.214844 L 279.84375 223.878906 L 278.144531 224.300781 L 277.503906 229.191406 L 275.378906 228.339844 L 275.378906 224.089844 L 273.464844 222.390625 L 268.363281 218.773438 L 263.050781 217.925781 C 256.207031 213.390625 257.65625 208.855469 258.585938 204.320312 L 261.984375 194.113281 L 261.984375 190.710938 L 259.011719 189.4375 L 258.371094 186.886719 L 259.011719 185.398438 L 257.945312 182.421875 L 256.246094 179.445312 L 264.539062 154.359375 L 264.75 159.671875 L 266.664062 160.097656 L 268.789062 169.878906 L 270.066406 177.957031 L 270.066406 184.332031 L 267.9375 188.375 L 264.75 189.863281 L 262.199219 190.925781 L 261.984375 194.113281 L 263.6875 193.261719 L 269 190.925781 L 270.488281 192.199219 L 272.617188 191.773438 L 273.890625 188.585938 L 276.65625 188.585938 L 283.246094 189.011719 L 286.859375 189.011719 L 288.136719 183.910156 L 284.945312 178.59375 C 280.960938 173.773438 281.214844 168.957031 281.96875 164.136719 C 286.570312 155.988281 282.382812 147.839844 281.121094 139.6875 L 279.417969 132.460938 L 279.632812 127.570312 L 281.332031 122.679688 L 279.207031 121.617188 L 278.992188 118.640625 L 254.121094 119.707031 L 256.671875 121.40625 L 252.417969 126.933594 L 250.71875 137.5625 L 251.144531 142.453125 L 252.417969 142.664062 L 251.144531 144.792969 L 250.292969 150.53125 L 248.59375 153.71875 L 247.316406 148.191406 L 247.316406 145.21875 L 241.363281 133.949219 L 245.617188 130.546875 L 244.765625 129.273438 L 243.703125 129.058594 L 246.042969 127.996094 L 245.617188 126.933594 L 243.914062 125.871094 L 245.191406 122.894531 L 246.890625 120.34375 L 250.292969 118.640625 L 254.136719 119.703125 L 278.902344 118.613281 L 283.898438 108.011719 C 295.742188 99.5 295.859375 107.226562 297.730469 112.523438 L 297.730469 118.835938 L 298.03125 129.058594 L 296.226562 145.894531 L 295.324219 165.136719 C 296.042969 171.550781 300.105469 177.964844 288.710938 184.378906 L 286.90625 189.492188 L 296.527344 186.183594 L 310.359375 195.203125 L 311.5625 197.007812 L 312.460938 193.398438 L 312.460938 183.777344 L 310.058594 181.671875 C 306.164062 176.984375 303.390625 172.015625 305.847656 165.738281 L 308.554688 160.929688 L 308.554688 150.707031 C 305.8125 145.25 309.207031 142.421875 311.863281 139.28125 L 310.660156 130.261719 C 310.511719 118.574219 321.253906 111.789062 324.488281 123.042969 C 325.988281 126.003906 327.667969 128.929688 324.488281 132.664062 C 324.582031 140.28125 327.078125 147.898438 323.585938 155.515625 L 323.585938 167.84375 L 318.777344 181.972656 C 317.300781 186.085938 314.679688 189.277344 316.972656 196.40625 L 316.070312 206.628906 L 317.875 210.535156 L 320.582031 209.035156 L 323.285156 206.628906 L 325.691406 206.027344 Z M 336.605469 210.484375 " fill-opacity="1" fill-rule="nonzero"/></g><path fill="#ff765e" d="M 257 232.082031 L 244.882812 249.195312 L 242.863281 249.195312 L 240.632812 247.601562 L 240.207031 248.980469 L 232.976562 249.089844 L 232.765625 252.914062 L 235.742188 258.972656 L 240.3125 263.226562 L 240.3125 265.671875 L 239.992188 266.519531 L 240.207031 270.984375 L 240.3125 272.898438 L 242.4375 274.386719 L 252.535156 283.742188 L 252.75 282.148438 L 254.664062 282.148438 L 256.152344 283.847656 L 254.554688 285.230469 L 257.957031 287.144531 L 259.871094 285.546875 L 257.640625 283.953125 L 258.703125 282.785156 L 260.296875 282.679688 L 261.148438 284.167969 L 272.839844 274.175781 L 274.007812 270.984375 L 273.476562 263.757812 L 277.515625 260.035156 L 280.8125 253.660156 L 280.917969 249.726562 L 273.371094 249.511719 L 273.050781 248.238281 L 271.140625 248.34375 L 270.820312 249.726562 L 269.011719 249.511719 Z M 257 232.082031 " fill-opacity="1" fill-rule="nonzero"/><path fill="#fe9d27" d="M 221.390625 228.039062 L 218.097656 228.039062 L 217.671875 228.992188 L 216.820312 229.949219 L 219.480469 231.226562 L 220.328125 232.714844 L 224.367188 232.609375 L 224.367188 231.332031 L 222.5625 229.949219 L 221.816406 229.207031 Z M 221.390625 228.039062 " fill-opacity="1" fill-rule="nonzero"/><path fill="#fe6676" d="M 292.027344 227.296875 L 295.324219 227.296875 L 295.75 228.253906 L 296.601562 229.210938 L 293.941406 230.488281 L 293.09375 231.976562 L 289.054688 231.871094 L 289.054688 230.59375 L 290.859375 229.210938 L 291.605469 228.46875 Z M 292.027344 227.296875 " fill-opacity="1" fill-rule="nonzero"/><path fill="#ff765e" d="M 256.875 177.796875 C 253.636719 169.90625 251.167969 161.617188 248.609375 153.726562 L 250.148438 150.503906 L 251.089844 144.707031 L 252.367188 142.753906 L 251.765625 142.375 C 248.105469 144.820312 249.628906 124.925781 256.351562 121.480469 L 257.101562 120.953125 L 261.3125 126.589844 C 262.332031 131.949219 265.496094 138.128906 262.457031 142.1875 L 261.3125 142.375 L 262.4375 144.40625 L 263.605469 150.503906 L 264.917969 153.050781 C 262.621094 161.167969 260.050781 169.679688 256.875 177.796875 Z M 256.875 177.796875 " fill-opacity="1" fill-rule="nonzero"/><path fill="#ff765e" d="M 315.050781 207.828125 L 311.671875 209.628906 L 309.039062 211.359375 L 307.3125 212.636719 L 306.332031 213.988281 L 306.03125 219.476562 L 303.628906 220.003906 L 300.996094 220.078125 L 299.71875 219.476562 L 297.914062 217.898438 L 298.066406 219.628906 L 298.367188 221.28125 L 301.148438 222.183594 L 301.371094 223.308594 C 301.371094 223.308594 299.644531 224.363281 299.34375 224.363281 C 299.042969 224.363281 296.1875 224.363281 295.8125 224.289062 C 295.433594 224.210938 292.203125 223.6875 292.203125 223.6875 C 292.203125 223.6875 291.601562 220.304688 291.902344 220.078125 C 292.203125 219.851562 293.632812 217.449219 293.632812 217.449219 L 295.359375 216.546875 L 294.53125 212.9375 L 295.960938 210.832031 L 297.164062 209.855469 L 298.214844 209.929688 L 298.292969 208.652344 C 298.292969 208.652344 298.59375 206.699219 298.96875 206.472656 C 299.34375 206.25 302.125 204.292969 302.425781 204.066406 C 302.726562 203.84375 305.355469 202.867188 305.882812 202.566406 C 306.410156 202.265625 308.0625 201.4375 308.890625 201.511719 C 309.714844 201.585938 313.171875 202.941406 313.171875 202.941406 L 315.128906 205.796875 Z M 315.050781 207.828125 " fill-opacity="1" fill-rule="nonzero"/><path fill="#fe6676" d="M 316.859375 207.828125 L 315.355469 207.828125 L 307.988281 211.960938 L 306.410156 213.914062 L 305.960938 219.476562 L 303.328125 220.003906 L 300.773438 220.003906 L 298.894531 218.800781 L 298.066406 218.125 L 298.292969 221.28125 L 301.375 222.257812 L 301.300781 223.234375 L 299.644531 224.289062 L 295.511719 224.363281 L 292.203125 223.386719 L 294.234375 226.542969 C 294.234375 226.542969 296.1875 227.96875 296.640625 228.121094 C 297.089844 228.269531 299.34375 228.648438 299.34375 228.648438 L 300.398438 229.25 L 301.601562 229.699219 L 304.683594 227.519531 L 306.710938 227.070312 L 308.964844 224.738281 L 311.371094 221.882812 C 311.371094 221.882812 311.597656 219.628906 312.046875 219.25 C 312.5 218.875 313.703125 218.125 313.703125 218.125 L 314.453125 215.492188 L 316.03125 212.710938 L 316.707031 212.109375 Z M 316.859375 207.828125 " fill-opacity="1" fill-rule="nonzero"/><path fill="#ff765e" d="M 198.132812 207.503906 L 201.515625 209.308594 L 204.144531 211.039062 L 205.875 212.316406 L 206.851562 213.667969 L 207.152344 219.15625 L 209.558594 219.683594 L 212.1875 219.757812 L 213.464844 219.15625 L 215.269531 217.578125 L 215.121094 219.304688 L 214.820312 220.960938 L 212.039062 221.863281 L 211.8125 222.988281 C 211.8125 222.988281 213.539062 224.042969 213.839844 224.042969 C 214.140625 224.042969 217 224.042969 217.375 223.964844 C 217.75 223.890625 220.980469 223.367188 220.980469 223.367188 C 220.980469 223.367188 221.582031 219.984375 221.28125 219.757812 C 220.980469 219.53125 219.554688 217.125 219.554688 217.125 L 217.824219 216.226562 L 218.652344 212.617188 L 217.222656 210.511719 L 216.019531 209.535156 L 214.96875 209.609375 L 214.894531 208.332031 C 214.894531 208.332031 214.59375 206.378906 214.21875 206.152344 C 213.839844 205.925781 211.058594 203.972656 210.757812 203.746094 C 210.460938 203.523438 207.828125 202.542969 207.300781 202.246094 C 206.777344 201.945312 205.121094 201.117188 204.296875 201.191406 C 203.46875 201.265625 200.011719 202.621094 200.011719 202.621094 L 198.058594 205.476562 Z M 198.132812 207.503906 " fill-opacity="1" fill-rule="nonzero"/><path fill="#fe9d27" d="M 196.328125 207.503906 L 197.832031 207.503906 L 205.199219 211.640625 L 206.777344 213.59375 L 207.226562 219.15625 L 209.859375 219.683594 L 212.414062 219.683594 L 214.292969 218.480469 L 215.121094 217.804688 L 214.894531 220.960938 L 211.8125 221.9375 L 211.886719 222.914062 L 213.539062 223.964844 L 217.675781 224.042969 L 220.980469 223.066406 L 218.953125 226.222656 C 218.953125 226.222656 217 227.648438 216.546875 227.800781 C 216.097656 227.949219 213.839844 228.324219 213.839844 228.324219 L 212.789062 228.925781 L 211.585938 229.378906 L 208.503906 227.199219 L 206.476562 226.746094 L 204.21875 224.417969 L 201.816406 221.5625 C 201.816406 221.5625 201.589844 219.304688 201.140625 218.929688 C 200.6875 218.554688 199.484375 217.804688 199.484375 217.804688 L 198.734375 215.171875 L 197.15625 212.390625 L 196.480469 211.789062 Z M 196.328125 207.503906 " fill-opacity="1" fill-rule="nonzero"/><path fill="#1fa8e3" d="M 39.28125 209.96875 C 37.15625 213.15625 36.421875 210.765625 35.878906 207.628906 L 28.011719 195.085938 L 30.988281 195.722656 L 30.988281 194.875 L 28.011719 193.386719 L 24.1875 178.714844 L 21.636719 179.355469 L 21.421875 175.742188 L 20.574219 168.085938 C 18.640625 146.285156 -3.222656 166.242188 3.5625 170.210938 C 5.371094 174.390625 5.800781 178.574219 12.917969 182.753906 C 16.125 188.066406 16.335938 195.519531 24.613281 197.210938 L 26.523438 198.273438 C 25.039062 203.949219 27.648438 208.398438 34.179688 211.667969 C 35.433594 214.5 36.433594 217.335938 33.753906 220.171875 L 35.453125 221.019531 L 33.753906 222.722656 L 33.539062 227.1875 L 35.027344 229.3125 L 34.601562 231.011719 L 35.667969 232.925781 L 34.816406 235.476562 L 35.242188 237.601562 L 42.683594 241.855469 L 40.980469 238.878906 L 47.785156 242.492188 L 44.167969 241.855469 L 47.144531 245.042969 C 44.074219 250.714844 43.179688 256.117188 46.507812 260.988281 L 46.082031 265.242188 L 44.808594 264.179688 C 40.707031 272.863281 46.402344 284.222656 50.761719 295.21875 L 56.714844 295.429688 L 60.753906 298.617188 L 67.34375 298.617188 L 75.632812 293.304688 L 82.222656 290.964844 L 87.113281 293.089844 L 90.726562 292.453125 L 90.726562 293.941406 L 96.46875 293.515625 L 92.429688 292.453125 L 93.492188 290.964844 L 96.894531 291.816406 L 100.507812 290.753906 L 101.570312 287.351562 L 100.71875 285.863281 L 101.359375 284.375 L 106.671875 284.375 L 104.335938 285.4375 L 104.335938 286.714844 L 102.847656 286.714844 L 104.121094 287.777344 L 101.78125 287.777344 L 100.507812 290.964844 L 102.632812 290.964844 L 103.058594 294.367188 L 105.824219 294.367188 L 106.035156 291.175781 L 110.925781 288.203125 L 111.5625 290.964844 L 118.152344 286.5 L 116.453125 285.226562 L 118.578125 283.523438 L 117.300781 281.824219 L 115.175781 281.824219 L 114.964844 283.738281 L 103.058594 272.894531 L 102.421875 270.554688 L 102.421875 266.304688 L 102.84375 263.113281 L 97.957031 258.4375 L 95.191406 252.699219 L 95.851562 249.296875 L 102.847656 249.082031 L 102.847656 248.019531 L 103.71875 249.273438 L 104.757812 249.296875 L 107.742188 249.742188 L 111.5625 243.128906 L 112.625 241.429688 L 119.265625 233.132812 L 119.851562 229.3125 L 115.390625 224.210938 L 115.390625 218.683594 L 113.902344 218.683594 L 112.835938 217.195312 L 107.523438 218.257812 L 107.949219 220.171875 L 101.996094 224.847656 L 98.382812 228.25 L 95.828125 230.800781 L 95.40625 234.414062 L 92.640625 237.390625 L 94.554688 240.15625 L 94.554688 242.707031 L 92.855469 245.894531 L 94.554688 246.53125 L 94.765625 248.871094 L 92.214844 253.761719 L 89.878906 260.5625 L 87.75 265.878906 L 86.261719 269.917969 C 86.136719 264.621094 83.152344 261.605469 79.035156 259.5 C 69.214844 259.707031 70.902344 252.589844 69.253906 247.59375 L 64.152344 242.28125 L 60.113281 237.816406 L 59.902344 235.476562 L 64.152344 227.824219 L 69.042969 225.910156 L 73.296875 228.460938 L 77.335938 227.824219 L 82.4375 225.058594 L 84.351562 221.660156 L 87.113281 221.660156 L 90.089844 224.421875 L 93.492188 225.699219 L 96.042969 223.359375 L 97.742188 223.785156 L 98.382812 228.675781 L 100.507812 227.824219 L 100.507812 223.570312 L 102.421875 221.871094 L 107.523438 218.257812 L 112.835938 217.40625 C 119.679688 212.871094 118.230469 208.335938 117.300781 203.800781 L 113.902344 193.597656 L 113.902344 190.195312 L 116.878906 188.917969 L 117.515625 186.367188 L 116.878906 184.878906 L 117.941406 181.902344 L 119.640625 178.925781 L 111.351562 153.839844 L 111.136719 159.15625 L 109.222656 159.582031 L 107.097656 169.359375 L 105.824219 177.4375 L 105.824219 183.816406 L 107.949219 187.855469 L 111.136719 189.34375 L 113.6875 190.40625 L 113.902344 193.597656 L 112.199219 192.746094 L 106.886719 190.40625 L 105.398438 191.683594 L 103.269531 191.257812 L 101.996094 188.066406 L 99.230469 188.066406 L 92.640625 188.492188 L 89.027344 188.492188 L 87.75 183.390625 L 90.941406 178.078125 C 94.925781 173.257812 94.671875 168.4375 93.917969 163.621094 C 89.316406 155.46875 93.503906 147.320312 94.765625 139.171875 L 96.46875 131.941406 L 96.253906 127.054688 L 94.554688 122.164062 L 96.679688 121.101562 L 96.894531 118.125 L 121.765625 119.1875 L 119.214844 120.886719 L 123.46875 126.414062 L 125.167969 137.046875 L 124.742188 141.933594 L 123.46875 142.148438 L 124.742188 144.273438 L 125.59375 150.015625 L 127.292969 153.203125 L 128.570312 147.675781 L 128.570312 144.699219 L 134.523438 133.429688 L 130.269531 130.03125 L 131.121094 128.753906 L 132.183594 128.542969 L 129.847656 127.480469 L 130.269531 126.414062 L 131.972656 125.351562 L 130.695312 122.375 L 128.996094 119.824219 L 125.59375 118.125 L 121.75 119.183594 L 96.984375 118.09375 L 91.988281 107.496094 C 80.140625 99 80.027344 106.722656 78.15625 112.019531 L 78.15625 118.335938 L 77.855469 128.558594 L 79.660156 145.394531 L 80.5625 164.636719 C 79.839844 171.050781 75.78125 177.460938 87.175781 183.875 L 88.980469 188.988281 L 79.359375 185.679688 L 65.527344 194.699219 L 64.324219 196.503906 L 63.421875 192.898438 L 63.421875 183.273438 L 65.828125 181.171875 C 69.71875 176.480469 72.496094 171.511719 70.039062 165.234375 L 67.332031 160.425781 L 67.332031 150.203125 C 70.070312 144.746094 66.679688 141.917969 64.023438 138.777344 L 65.226562 129.765625 C 65.375 118.078125 54.632812 111.292969 51.398438 122.546875 C 49.898438 125.503906 48.21875 128.433594 51.398438 132.167969 C 51.304688 139.785156 48.808594 147.402344 52.300781 155.019531 L 52.300781 167.347656 L 57.109375 181.476562 C 58.585938 185.589844 61.210938 188.78125 58.914062 195.910156 L 59.816406 206.132812 L 58.011719 210.039062 L 55.304688 208.535156 L 52.601562 206.132812 L 50.195312 205.53125 L 39.28125 209.988281 Z M 39.28125 209.96875 " fill-opacity="1" fill-rule="nonzero"/><g clip-path="url(#84f0fab904)"><path fill="#e84ea9" d="M 198.929688 210.484375 C 201.054688 213.671875 201.785156 211.28125 202.328125 208.144531 L 210.195312 195.601562 L 207.21875 196.238281 L 207.21875 195.386719 L 210.195312 193.902344 L 214.023438 179.230469 L 216.574219 179.871094 L 216.785156 176.253906 L 217.636719 168.601562 C 219.566406 146.804688 241.429688 166.757812 234.644531 170.726562 C 232.835938 174.910156 232.410156 179.089844 225.289062 183.273438 C 222.082031 188.582031 221.871094 196.035156 213.597656 197.726562 L 211.683594 198.789062 C 213.167969 204.464844 210.5625 208.914062 204.03125 212.183594 C 202.777344 215.019531 201.773438 217.851562 204.457031 220.6875 L 202.753906 221.539062 L 204.457031 223.238281 L 204.667969 227.703125 L 203.179688 229.828125 L 203.605469 231.53125 L 202.542969 233.445312 L 203.394531 235.996094 L 202.96875 238.121094 L 195.527344 242.371094 L 197.226562 239.394531 L 190.425781 243.011719 L 194.039062 242.371094 L 191.0625 245.5625 C 194.132812 251.234375 195.027344 256.632812 191.699219 261.507812 L 192.125 265.757812 L 193.402344 264.695312 C 197.5 273.382812 191.804688 284.742188 187.449219 295.734375 L 181.496094 295.945312 L 177.457031 299.136719 L 170.867188 299.136719 L 162.574219 293.820312 L 155.984375 291.484375 L 151.09375 293.609375 L 147.480469 292.972656 L 147.480469 294.457031 L 141.742188 294.035156 L 145.78125 292.972656 L 144.71875 291.484375 L 141.316406 292.332031 L 137.703125 291.269531 L 136.636719 287.867188 L 137.488281 286.378906 L 136.851562 284.890625 L 131.535156 284.890625 L 133.875 285.953125 L 133.875 287.230469 L 135.363281 287.230469 L 134.085938 288.292969 L 136.425781 288.292969 L 137.703125 291.484375 L 135.574219 291.484375 L 135.148438 294.882812 L 132.386719 294.882812 L 132.171875 291.695312 L 127.285156 288.71875 L 126.644531 291.484375 L 120.054688 287.019531 L 121.757812 285.742188 L 119.628906 284.042969 L 120.90625 282.339844 L 123.03125 282.339844 L 123.246094 284.253906 L 135.152344 273.410156 L 135.789062 271.074219 L 135.789062 266.820312 L 135.363281 263.632812 L 140.253906 258.957031 L 143.015625 253.214844 L 143.015625 249.8125 L 135.363281 249.601562 L 135.363281 248.539062 L 133.238281 248.539062 L 133.449219 249.8125 L 131.324219 249.601562 L 126.648438 243.648438 L 125.582031 241.949219 L 119.207031 232.59375 L 118.355469 229.828125 L 122.820312 224.726562 L 122.820312 219.199219 L 124.308594 219.199219 L 125.371094 217.710938 L 130.6875 218.773438 L 130.261719 220.6875 L 136.214844 225.363281 L 139.828125 228.765625 L 142.378906 231.316406 L 142.804688 234.933594 L 145.566406 237.910156 L 143.65625 240.671875 L 143.65625 243.222656 L 145.355469 246.414062 L 143.65625 247.050781 L 143.441406 249.386719 L 145.992188 254.277344 L 148.332031 261.082031 L 150.457031 266.394531 L 151.945312 270.433594 C 152.074219 265.136719 155.054688 262.121094 159.175781 260.019531 C 168.992188 260.222656 167.304688 253.105469 168.953125 248.113281 L 174.054688 242.796875 L 178.09375 238.332031 L 178.308594 235.996094 L 174.054688 228.339844 L 169.164062 226.429688 L 164.914062 228.980469 L 160.875 228.339844 L 155.773438 225.578125 L 153.859375 222.175781 L 151.09375 222.175781 L 148.117188 224.941406 L 144.71875 226.214844 L 142.167969 223.878906 L 140.464844 224.300781 L 139.828125 229.191406 L 137.703125 228.339844 L 137.703125 224.089844 L 135.789062 222.390625 L 130.6875 218.773438 L 125.371094 217.925781 C 118.527344 213.390625 119.976562 208.855469 120.90625 204.320312 L 124.308594 194.113281 L 124.308594 190.710938 L 121.332031 189.4375 L 120.695312 186.886719 L 121.332031 185.398438 L 120.269531 182.421875 L 118.566406 179.445312 L 126.859375 154.359375 L 127.070312 159.671875 L 128.984375 160.097656 L 131.109375 169.878906 L 132.386719 177.957031 L 132.386719 184.332031 L 130.261719 188.375 L 127.070312 189.863281 L 124.519531 190.925781 L 124.308594 194.113281 L 126.007812 193.261719 L 131.324219 190.925781 L 132.8125 192.199219 L 134.9375 191.773438 L 136.214844 188.585938 L 138.976562 188.585938 L 145.566406 189.011719 L 149.179688 189.011719 L 150.457031 183.910156 L 147.269531 178.59375 C 143.285156 173.773438 143.539062 168.957031 144.292969 164.136719 C 148.890625 155.988281 144.707031 147.839844 143.441406 139.6875 L 141.742188 132.460938 L 141.953125 127.570312 L 143.652344 122.679688 L 141.527344 121.617188 L 141.316406 118.640625 L 116.441406 119.707031 L 118.992188 121.40625 L 114.742188 126.933594 L 113.039062 137.5625 L 113.464844 142.453125 L 114.742188 142.664062 L 113.464844 144.792969 L 112.613281 150.53125 L 110.914062 153.71875 L 109.640625 148.191406 L 109.640625 145.21875 L 103.6875 133.949219 L 107.9375 130.546875 L 107.085938 129.273438 L 106.023438 129.058594 L 108.363281 127.996094 L 107.9375 126.933594 L 106.238281 125.871094 L 107.511719 122.894531 L 109.214844 120.34375 L 112.613281 118.640625 L 116.457031 119.703125 L 141.222656 118.613281 L 146.222656 108.011719 C 158.066406 99.5 158.183594 107.226562 160.050781 112.523438 L 160.050781 118.835938 L 160.351562 129.058594 L 158.546875 145.894531 L 157.648438 165.136719 C 158.367188 171.550781 162.425781 177.964844 151.03125 184.378906 L 149.226562 189.492188 L 158.847656 186.183594 L 172.679688 195.203125 L 173.882812 197.007812 L 174.785156 193.398438 L 174.785156 183.777344 L 172.378906 181.671875 C 168.488281 176.984375 165.710938 172.015625 168.171875 165.738281 L 170.875 160.929688 L 170.875 150.707031 C 168.136719 145.25 171.527344 142.421875 174.183594 139.28125 L 172.980469 130.261719 C 172.832031 118.574219 183.578125 111.789062 186.8125 123.042969 C 188.308594 126.003906 189.988281 128.929688 186.8125 132.664062 C 186.90625 140.28125 189.398438 147.898438 185.910156 155.515625 L 185.910156 167.84375 L 181.097656 181.972656 C 179.625 186.085938 177 189.277344 179.292969 196.40625 L 178.394531 206.628906 L 180.195312 210.535156 L 182.902344 209.035156 L 185.609375 206.628906 L 188.015625 206.027344 Z M 198.929688 210.484375 " fill-opacity="1" fill-rule="nonzero"/></g><path fill="#bb63b7" d="M 119.324219 232.082031 L 107.207031 249.195312 L 105.1875 249.195312 L 102.953125 247.601562 L 102.527344 248.980469 L 95.300781 249.089844 L 95.085938 252.914062 L 98.0625 258.972656 L 102.632812 263.226562 L 102.632812 265.671875 L 102.316406 266.519531 L 102.527344 270.984375 L 102.632812 272.898438 L 104.761719 274.386719 L 114.859375 283.742188 L 115.070312 282.148438 L 116.984375 282.148438 L 118.472656 283.847656 L 116.878906 285.230469 L 120.28125 287.144531 L 122.191406 285.546875 L 119.960938 283.953125 L 121.023438 282.785156 L 122.617188 282.679688 L 123.46875 284.167969 L 135.160156 274.175781 L 136.332031 270.984375 L 135.800781 263.757812 L 139.839844 260.035156 L 143.132812 253.660156 L 143.238281 249.726562 L 135.691406 249.511719 L 135.375 248.238281 L 133.460938 248.34375 L 133.140625 249.726562 L 131.335938 249.511719 Z M 119.324219 232.082031 " fill-opacity="1" fill-rule="nonzero"/><path fill="#e84ea9" d="M 83.714844 228.039062 L 80.417969 228.039062 L 79.992188 228.992188 L 79.144531 229.949219 L 81.800781 231.226562 L 82.652344 232.714844 L 86.691406 232.609375 L 86.691406 231.332031 L 84.882812 229.949219 L 84.140625 229.207031 Z M 83.714844 228.039062 " fill-opacity="1" fill-rule="nonzero"/><path fill="#1fa8e3" d="M 154.351562 227.296875 L 157.644531 227.296875 L 158.070312 228.253906 L 158.921875 229.210938 L 156.265625 230.488281 L 155.414062 231.976562 L 151.375 231.871094 L 151.375 230.59375 L 153.183594 229.210938 L 153.925781 228.46875 Z M 154.351562 227.296875 " fill-opacity="1" fill-rule="nonzero"/><path fill="#bb63b7" d="M 119.195312 177.796875 C 115.957031 169.90625 113.488281 161.617188 110.929688 153.726562 L 112.46875 150.503906 L 113.410156 144.707031 L 114.6875 142.753906 L 114.085938 142.375 C 110.429688 144.820312 111.949219 124.925781 118.671875 121.480469 L 119.425781 120.953125 L 123.632812 126.589844 C 124.65625 131.949219 127.820312 138.128906 124.78125 142.1875 L 123.632812 142.375 L 124.761719 144.40625 L 125.925781 150.503906 L 127.242188 153.050781 C 124.941406 161.167969 122.375 169.679688 119.199219 177.796875 Z M 119.195312 177.796875 " fill-opacity="1" fill-rule="nonzero"/><path fill="#bb63b7" d="M 177.375 207.828125 L 173.992188 209.628906 L 171.363281 211.359375 L 169.632812 212.636719 L 168.65625 213.988281 L 168.355469 219.476562 L 165.949219 220.003906 L 163.320312 220.078125 L 162.042969 219.476562 L 160.238281 217.898438 L 160.386719 219.628906 L 160.6875 221.28125 L 163.46875 222.183594 L 163.695312 223.308594 C 163.695312 223.308594 161.964844 224.363281 161.664062 224.363281 C 161.363281 224.363281 158.507812 224.363281 158.132812 224.289062 C 157.757812 224.210938 154.523438 223.6875 154.523438 223.6875 C 154.523438 223.6875 153.921875 220.304688 154.222656 220.078125 C 154.523438 219.851562 155.953125 217.449219 155.953125 217.449219 L 157.683594 216.546875 L 156.855469 212.9375 L 158.28125 210.832031 L 159.484375 209.855469 L 160.539062 209.929688 L 160.613281 208.652344 C 160.613281 208.652344 160.914062 206.699219 161.289062 206.472656 C 161.664062 206.25 164.445312 204.292969 164.746094 204.066406 C 165.046875 203.84375 167.679688 202.867188 168.203125 202.566406 C 168.730469 202.265625 170.382812 201.4375 171.210938 201.511719 C 172.039062 201.585938 175.496094 202.941406 175.496094 202.941406 L 177.449219 205.796875 Z M 177.375 207.828125 " fill-opacity="1" fill-rule="nonzero"/><path fill="#1fa8e3" d="M 179.179688 207.828125 L 177.675781 207.828125 L 170.3125 211.960938 L 168.730469 213.914062 L 168.28125 219.476562 L 165.652344 220.003906 L 163.09375 220.003906 L 161.214844 218.800781 L 160.390625 218.125 L 160.613281 221.28125 L 163.695312 222.257812 L 163.621094 223.234375 L 161.96875 224.289062 L 157.832031 224.363281 L 154.527344 223.386719 L 156.554688 226.542969 C 156.554688 226.542969 158.511719 227.96875 158.960938 228.121094 C 159.410156 228.269531 161.667969 228.648438 161.667969 228.648438 L 162.71875 229.25 L 163.921875 229.699219 L 167.003906 227.519531 L 169.03125 227.070312 L 171.289062 224.738281 L 173.691406 221.882812 C 173.691406 221.882812 173.917969 219.628906 174.371094 219.25 C 174.820312 218.875 176.023438 218.125 176.023438 218.125 L 176.773438 215.492188 L 178.351562 212.710938 L 179.03125 212.109375 Z M 179.179688 207.828125 " fill-opacity="1" fill-rule="nonzero"/><path fill="#bb63b7" d="M 60.453125 207.503906 L 63.835938 209.308594 L 66.46875 211.039062 L 68.195312 212.316406 L 69.171875 213.667969 L 69.472656 219.15625 L 71.878906 219.683594 L 74.511719 219.757812 L 75.789062 219.15625 L 77.589844 217.578125 L 77.441406 219.304688 L 77.140625 220.960938 L 74.359375 221.863281 L 74.132812 222.988281 C 74.132812 222.988281 75.863281 224.042969 76.164062 224.042969 C 76.464844 224.042969 79.320312 224.042969 79.695312 223.964844 C 80.070312 223.890625 83.304688 223.367188 83.304688 223.367188 C 83.304688 223.367188 83.90625 219.984375 83.605469 219.757812 C 83.304688 219.53125 81.875 217.125 81.875 217.125 L 80.148438 216.226562 L 80.972656 212.617188 L 79.546875 210.511719 L 78.34375 209.535156 L 77.289062 209.609375 L 77.214844 208.332031 C 77.214844 208.332031 76.914062 206.378906 76.539062 206.152344 C 76.164062 205.925781 73.382812 203.972656 73.082031 203.746094 C 72.78125 203.523438 70.148438 202.542969 69.625 202.246094 C 69.097656 201.945312 67.445312 201.117188 66.617188 201.191406 C 65.789062 201.265625 62.332031 202.621094 62.332031 202.621094 L 60.378906 205.476562 Z M 60.453125 207.503906 " fill-opacity="1" fill-rule="nonzero"/><path fill="#e84ea9" d="M 58.648438 207.503906 L 60.152344 207.503906 L 67.519531 211.640625 L 69.097656 213.59375 L 69.550781 219.15625 L 72.179688 219.683594 L 74.734375 219.683594 L 76.613281 218.480469 L 77.441406 217.804688 L 77.214844 220.960938 L 74.132812 221.9375 L 74.210938 222.914062 L 75.863281 223.964844 L 79.996094 224.042969 L 83.304688 223.066406 L 81.273438 226.222656 C 81.273438 226.222656 79.320312 227.648438 78.871094 227.800781 C 78.417969 227.949219 76.164062 228.324219 76.164062 228.324219 L 75.109375 228.925781 L 73.910156 229.378906 L 70.828125 227.199219 L 68.796875 226.746094 L 66.542969 224.417969 L 64.136719 221.5625 C 64.136719 221.5625 63.910156 219.304688 63.460938 218.929688 C 63.007812 218.554688 61.808594 217.804688 61.808594 217.804688 L 61.054688 215.171875 L 59.476562 212.390625 L 58.800781 211.789062 Z M 58.648438 207.503906 " fill-opacity="1" fill-rule="nonzero"/></svg>